<svg width="17" height="16" viewBox="0 0 17 16" fill="none" xmlns="http://www.w3.org/2000/svg">
<g clip-path="url(#clip0_567_6744)">
<path d="M5.16658 4.00064C4.35282 4.00308 3.90247 4.02255 3.5324 4.17787C3.01405 4.39544 2.59192 4.79733 2.34532 5.30803C2.14404 5.72489 2.1111 6.25897 2.04522 7.32712L1.942 9.00092C1.77818 11.6572 1.69626 12.9853 2.47571 13.8261C3.25515 14.667 4.56826 14.667 7.19452 14.667H9.80532C12.4316 14.667 13.7447 14.667 14.5241 13.8261C15.3036 12.9853 15.2217 11.6572 15.0579 9.00092L14.9546 7.32712C14.8887 6.25897 14.8558 5.72489 14.6545 5.30803C14.4079 4.79733 13.9858 4.39544 13.4674 4.17787C13.0974 4.02255 12.647 4.00308 11.8332 4.00064" stroke="#E88954" stroke-width="2" stroke-linecap="round"/>
<path d="M11.8334 4.66668L11.2429 3.1903C10.9881 2.55332 10.7663 1.83074 10.1111 1.50638C9.76168 1.33334 9.34115 1.33334 8.50008 1.33334C7.65901 1.33334 7.23848 1.33334 6.88898 1.50638C6.23381 1.83074 6.01209 2.55332 5.7573 3.1903L5.16675 4.66668" stroke="#E88954" stroke-width="2" stroke-linecap="round" stroke-linejoin="round"/>
<path d="M10.8334 9.33333C10.8334 10.622 9.78875 11.6667 8.50008 11.6667C7.21141 11.6667 6.16675 10.622 6.16675 9.33333C6.16675 8.04467 7.21141 7 8.50008 7C9.78875 7 10.8334 8.04467 10.8334 9.33333Z" stroke="#E88954" stroke-width="2"/>
<path d="M8.49976 4H8.50576" stroke="#E88954" stroke-width="2" stroke-linecap="round" stroke-linejoin="round"/>
</g>
<defs>
<clipPath id="clip0_567_6744">
<rect width="16" height="16" fill="white" transform="translate(0.5)"/>
</clipPath>
</defs>
</svg>
