<svg width="8" height="8" viewBox="0 0 8 8" fill="none" xmlns="http://www.w3.org/2000/svg">
<g clip-path="url(#clip0_565_4422)">
<path d="M1.72653 5.09875C1.30733 5.34445 0.208241 5.84615 0.877663 6.47395C1.20467 6.78062 1.56887 6.99995 2.02676 6.99995H4.63957C5.09747 6.99995 5.46167 6.78062 5.78867 6.47395C6.4581 5.84615 5.359 5.34445 4.9398 5.09875C3.9568 4.52258 2.70952 4.52258 1.72653 5.09875Z" stroke="#E88954" stroke-linecap="round" stroke-linejoin="round"/>
<path d="M4.66667 2.33333C4.66667 3.06971 4.0697 3.66667 3.33333 3.66667C2.59695 3.66667 2 3.06971 2 2.33333C2 1.59695 2.59695 1 3.33333 1C4.0697 1 4.66667 1.59695 4.66667 2.33333Z" stroke="#E88954"/>
<path d="M6.54086 1.52192C6.61539 1.44118 6.65263 1.40081 6.69223 1.37727C6.78776 1.32045 6.90539 1.31868 7.00253 1.37261C7.04279 1.39495 7.08119 1.43419 7.15799 1.51265C7.23479 1.59111 7.27323 1.63035 7.29509 1.67147C7.34786 1.77069 7.34616 1.89085 7.29053 1.98844C7.26746 2.02889 7.22796 2.06695 7.14893 2.14307L6.20856 3.0488C6.05879 3.19306 5.98389 3.26519 5.89029 3.30175C5.79669 3.33831 5.69383 3.33561 5.48803 3.33023L5.46003 3.3295C5.39739 3.32786 5.36606 3.32704 5.34786 3.30638C5.32966 3.28571 5.33213 3.25381 5.33709 3.18999L5.33979 3.15534C5.35379 2.97573 5.36079 2.88592 5.39586 2.8052C5.43093 2.72447 5.49143 2.65892 5.61243 2.52782L6.54086 1.52192Z" stroke="#E88954" stroke-linejoin="round"/>
</g>
<defs>
<clipPath id="clip0_565_4422">
<rect width="8" height="8" fill="white"/>
</clipPath>
</defs>
</svg>
