<svg width="8" height="8" viewBox="0 0 8 8" fill="none" xmlns="http://www.w3.org/2000/svg">
<g clip-path="url(#clip0_592_12459)">
<path d="M1.72677 5.09881C1.30758 5.34451 0.208485 5.84621 0.877908 6.47401C1.20491 6.78068 1.56911 7.00001 2.027 7.00001H4.63981C5.09771 7.00001 5.46191 6.78068 5.78891 6.47401C6.45835 5.84621 5.35925 5.34451 4.94005 5.09881C3.95705 4.52265 2.70977 4.52265 1.72677 5.09881Z" stroke="#E88954" stroke-width="0.666667" stroke-linecap="round" stroke-linejoin="round"/>
<path d="M4.66667 2.33333C4.66667 3.06971 4.0697 3.66667 3.33333 3.66667C2.59695 3.66667 2 3.06971 2 2.33333C2 1.59695 2.59695 1 3.33333 1C4.0697 1 4.66667 1.59695 4.66667 2.33333Z" stroke="#E88954" stroke-width="0.666667"/>
<path d="M6.54062 1.52189C6.61515 1.44115 6.65238 1.40078 6.69198 1.37724C6.78752 1.32042 6.90515 1.31865 7.00228 1.37258C7.04255 1.39492 7.08095 1.43416 7.15775 1.51262C7.23455 1.59108 7.27298 1.63032 7.29485 1.67144C7.34762 1.77066 7.34592 1.89082 7.29028 1.98841C7.26722 2.02886 7.22772 2.06692 7.14868 2.14304L6.20832 3.04877C6.05855 3.19303 5.98365 3.26516 5.89005 3.30172C5.79645 3.33828 5.69358 3.33558 5.48778 3.3302L5.45978 3.32947C5.39715 3.32783 5.36582 3.32701 5.34762 3.30635C5.32942 3.28568 5.33188 3.25378 5.33685 3.18996L5.33955 3.15531C5.35355 2.9757 5.36055 2.88589 5.39562 2.80517C5.43068 2.72444 5.49118 2.65889 5.61218 2.52779L6.54062 1.52189Z" stroke="#E88954" stroke-width="0.666667" stroke-linejoin="round"/>
</g>
<defs>
<clipPath id="clip0_592_12459">
<rect width="8" height="8" fill="white"/>
</clipPath>
</defs>
</svg>
