<svg width="24" height="24" viewBox="0 0 24 24" fill="none" xmlns="http://www.w3.org/2000/svg">
<g clip-path="url(#clip0_286_1901)">
<path d="M12.2352 21C10.867 21 9.61283 20.7886 8.47268 20.3659C7.34679 19.9568 6.37055 19.3568 5.54394 18.5659C4.73159 17.7886 4.10451 16.8614 3.66271 15.7841C3.2209 14.6932 3 13.4795 3 12.1432C3 10.7659 3.22803 9.51818 3.68409 8.4C4.14014 7.28182 4.79572 6.32045 5.65083 5.51591C6.50594 4.71136 7.51782 4.09091 8.68646 3.65455C9.86936 3.21818 11.1734 3 12.5986 3C14.2803 3 15.7482 3.32045 17.0024 3.96136C18.2708 4.58864 19.2542 5.475 19.9525 6.62045C20.6508 7.75227 21 9.08864 21 10.6295C21 11.8159 20.8219 12.8455 20.4656 13.7182C20.1235 14.5773 19.639 15.2455 19.0119 15.7227C18.399 16.1864 17.6793 16.4182 16.8527 16.4182C15.9834 16.4182 15.3064 16.1932 14.8219 15.7432C14.3515 15.2795 14.1021 14.6386 14.0736 13.8205L14.7363 13.6159C14.38 14.5432 13.8741 15.2455 13.2185 15.7227C12.5629 16.1864 11.8504 16.4182 11.0808 16.4182C9.94062 16.4182 9.05701 16.0773 8.42993 15.3955C7.80285 14.7136 7.48931 13.7795 7.48931 12.5932C7.48931 11.5977 7.68171 10.7114 8.06651 9.93409C8.46556 9.15682 9.00713 8.54318 9.69121 8.09318C10.3895 7.64318 11.1805 7.41818 12.0641 7.41818C12.8195 7.41818 13.4394 7.60227 13.924 7.97045C14.4086 8.325 14.7363 8.85 14.9074 9.54545H14.5439L14.7363 8.44091C14.8361 7.85455 15.2066 7.56136 15.848 7.56136C16.1758 7.56136 16.4181 7.65 16.5748 7.82727C16.7458 8.00455 16.7957 8.26364 16.7245 8.60455L15.9976 12.5523C15.9549 12.7705 15.9192 12.975 15.8907 13.1659C15.8765 13.3432 15.8694 13.5068 15.8694 13.6568C15.8694 14.0795 15.962 14.3932 16.1473 14.5977C16.3325 14.8023 16.6105 14.9045 16.981 14.9045C17.4513 14.9045 17.8575 14.7273 18.1995 14.3727C18.5558 14.0182 18.8337 13.5205 19.0333 12.8795C19.2328 12.225 19.3325 11.475 19.3325 10.6295C19.3325 9.36136 19.0546 8.27727 18.4988 7.37727C17.9572 6.47727 17.1805 5.78864 16.1686 5.31136C15.171 4.82045 13.9739 4.575 12.5772 4.575C11.0238 4.575 9.66983 4.88864 8.51544 5.51591C7.36105 6.12955 6.46318 7.00227 5.82185 8.13409C5.18052 9.26591 4.85986 10.6023 4.85986 12.1432C4.85986 13.6568 5.15914 14.9591 5.75772 16.05C6.37055 17.1409 7.22565 17.9727 8.32304 18.5455C9.43468 19.1318 10.7387 19.425 12.2352 19.425C13.1758 19.425 14.0238 19.3159 14.7791 19.0977C15.5487 18.8932 16.2399 18.5864 16.8527 18.1773C17.1093 18 17.3444 17.9318 17.5582 17.9727C17.7862 18.0273 17.9572 18.1432 18.0713 18.3205C18.1853 18.4977 18.2209 18.6955 18.1781 18.9136C18.1496 19.1318 18.0071 19.3295 17.7506 19.5068C17.095 19.9568 16.2969 20.3182 15.3563 20.5909C14.4299 20.8636 13.3895 21 12.2352 21ZM11.4656 14.8023C12.0071 14.8023 12.4846 14.6455 12.8979 14.3318C13.3254 14.0045 13.6532 13.5614 13.8812 13.0023C14.1235 12.4295 14.2447 11.775 14.2447 11.0386C14.2447 10.3841 14.095 9.89318 13.7957 9.56591C13.4964 9.225 13.0333 9.05454 12.4062 9.05454C11.8646 9.05454 11.38 9.20455 10.9525 9.50455C10.5249 9.80454 10.19 10.2205 9.94774 10.7523C9.70546 11.2705 9.58432 11.8773 9.58432 12.5727C9.58432 13.2955 9.74822 13.8477 10.076 14.2295C10.4038 14.6114 10.867 14.8023 11.4656 14.8023Z" fill="#F5F5F5"/>
</g>
<defs>
<clipPath id="clip0_286_1901">
<rect width="24" height="24" fill="white"/>
</clipPath>
</defs>
</svg>
